<svg width="36" height="41" viewBox="0 0 36 41" fill="none" xmlns="http://www.w3.org/2000/svg">
<path d="M4.00116 40.2985C0.0757687 36.4685 -0.0727604 34.281 4.00116 30.2985" stroke="#EEEEEE" stroke-linecap="round"/>
<path d="M4.00116 30.2985C0.0757687 26.4685 -0.0727604 24.281 4.00116 20.2985" stroke="#EEEEEE" stroke-linecap="round"/>
<path d="M4.00116 20.2986C2.50116 14.2985 5.50116 8.29849 11.0012 10.2985" stroke="#EEEEEE" stroke-linecap="round"/>
<path d="M32.0012 40.2985C35.9266 36.4685 36.0751 34.281 32.0012 30.2985" stroke="#EEEEEE" stroke-linecap="round"/>
<path d="M32.0012 30.2985C35.9266 26.4685 36.0751 24.281 32.0012 20.2985" stroke="#EEEEEE" stroke-linecap="round"/>
<path d="M32.0012 20.2985C33.5012 14.2984 30.5012 8.29848 25.0012 10.2985" stroke="#EEEEEE" stroke-linecap="round"/>
<path d="M11.0012 10.2985C14.566 6.31244 21.5333 6.57063 25.0012 10.2985" stroke="#EEEEEE" stroke-linecap="round"/>
<path d="M9.00116 9.90234C8.37544 -1.82794 12.8887 0.0661195 14.0012 7.90236" stroke="#EEEEEE" stroke-linecap="round"/>
<path d="M27.0012 9.79849C27.6269 -1.93179 23.1136 -0.0377376 22.0012 7.7985" stroke="#EEEEEE" stroke-linecap="round"/>
<path d="M24.5 22C24.5 23.4188 24.1479 24.4952 23.2446 25.239C22.316 26.0038 20.7087 26.5 18 26.5C15.2913 26.5 13.684 26.0038 12.7554 25.239C11.8521 24.4952 11.5 23.4188 11.5 22C11.5 20.6956 12.1748 19.5874 13.3344 18.7864C14.5016 17.9802 16.1471 17.5 18 17.5C19.6625 17.5 21.3136 17.9767 22.5351 18.791C23.7551 19.6043 24.5 20.7163 24.5 22Z" stroke="#EEEEEE"/>
<circle cx="26.5" cy="18.5" r="1.5" fill="#EEEEEE"/>
<circle cx="9.5" cy="18.5" r="1.5" fill="#EEEEEE"/>
<path d="M18 23C18 25.5 21 25 21 23.5" stroke="#EEEEEE" stroke-linecap="round"/>
<path d="M15 23.5C15 25 18 25.5 18 23" stroke="#EEEEEE" stroke-linecap="round"/>
<path d="M18 23V21" stroke="#EEEEEE" stroke-linecap="round"/>
<path d="M18 21L19.5 20" stroke="#EEEEEE" stroke-linecap="round"/>
<path d="M18 21L16.6 20" stroke="#EEEEEE" stroke-linecap="round"/>
</svg>
